<?xml version="1.0" encoding="iso-8859-1"?>
<!-- Generator: Adobe Illustrator 19.0.0, SVG Export Plug-In . SVG Version: 6.00 Build 0)  -->
<svg version="1.1" id="Layer_1" xmlns="http://www.w3.org/2000/svg" xmlns:xlink="http://www.w3.org/1999/xlink" x="0px" y="0px"
	 viewBox="0 0 508.343 508.343" style="enable-background:new 0 0 508.343 508.343;" xml:space="preserve">
<g>
	<g>
		<path d="M397.05,80.533l-68.412-36.838c-1.434-0.768-2.33-2.261-2.33-3.891V21.619c0-6.707-3.021-12.902-8.311-17.033
			c-5.274-4.122-12.058-5.564-18.526-3.925L195.057,26.756c-12.518,3.132-23.006,11.554-28.766,23.066l-0.845,1.69
			c-4.011,8.038-12.237,13.056-21.461,13.099c-16.964,0.085-32.768,7.731-43.358,20.975L89.995,98.871
			c-7.159,8.951-11.349,19.738-12.126,31.198l-6.647,99.772c-0.7,10.445,1.681,20.779,6.878,29.867l27.46,48.06
			c3.012,45.397,13.5,88.704,46.131,119.68c6.622,6.289,13.747,11.904,21.018,17.186v55.177c0,4.71,3.814,8.533,8.533,8.533
			s8.533-3.823,8.533-8.533v-43.213c0.981,0.657,1.971,1.314,2.953,1.971l7.885,5.308c3.234,2.193,6.391,4.523,9.54,6.844
			c13.653,10.112,27.785,20.557,47.659,20.557c0.043,0,0.077-0.009,0.111-0.009c0.043,0,0.077,0.009,0.119,0.009
			c19.874,0,33.997-10.445,47.659-20.557c3.149-2.321,6.306-4.651,9.54-6.844l8.201-5.513c0.947-0.631,1.92-1.289,2.867-1.929
			v43.375c0,4.71,3.814,8.533,8.533,8.533c4.719,0,8.533-3.823,8.533-8.533v-55.177c7.279-5.282,14.404-10.897,21.018-17.186
			c32.7-31.044,43.273-74.453,46.336-120.013l10.957-25.566c10.325-24.107,15.556-49.613,15.556-75.81v-58.223
			C437.242,119.676,421.839,93.888,397.05,80.533z M394.805,269.41c0,3.166-0.026,6.332-0.051,9.506
			c-0.017,1.357-0.051,2.645-0.077,3.968c-0.034,1.775-0.068,3.55-0.119,5.316c-0.043,1.476-0.102,2.901-0.145,4.343
			c-0.068,1.792-0.137,3.584-0.222,5.376c-0.06,1.169-0.119,2.338-0.171,3.49c-2.432,43.759-11.546,85.333-41.378,113.655
			c-6.793,6.451-14.37,12.254-22.144,17.766c-0.188,0.12-0.41,0.179-0.589,0.307c-5.359,3.797-10.837,7.458-16.299,11.11
			l-8.183,5.487c-3.43,2.33-6.767,4.804-10.103,7.27c-11.93,8.815-23.211,17.143-37.402,17.195
			c-14.191-0.051-25.464-8.38-37.393-17.195c-3.337-2.466-6.682-4.941-10.103-7.27l-8.303-5.564
			c-13.329-8.909-27.11-18.125-38.682-29.107c-28.74-27.281-37.905-65.877-40.721-104.713l-0.41-7.287
			c-0.538-9.762-0.802-20.446-0.802-32.666l0.23-77.79c0-5.768,1.126-11.358,3.345-16.623c0.87-2.057,1.971-3.942,3.183-5.734
			c0.358-0.538,0.759-1.041,1.143-1.545c0.956-1.263,1.98-2.449,3.098-3.558c0.452-0.461,0.905-0.93,1.374-1.348
			c1.459-1.314,3.012-2.517,4.668-3.575c0.154-0.102,0.273-0.222,0.427-0.307c1.818-1.126,3.755-2.057,5.76-2.867
			c0.589-0.247,1.212-0.435,1.826-0.648c1.485-0.521,3.012-0.956,4.574-1.306c0.691-0.145,1.374-0.307,2.074-0.427
			c1.843-0.307,3.721-0.486,5.623-0.546c0.367-0.008,0.725-0.068,1.092-0.068c1.468-0.009,2.961,0.213,4.454,0.358
			c1.033,0.102,2.057,0.094,3.098,0.265c2.517,0.435,5.052,1.092,7.552,2.005c13.013,4.702,38.025,10.325,83.243,10.325
			c45.227,0,70.238-5.623,83.251-10.325c20.343-7.364,42.249,1.126,49.937,19.302c2.227,5.265,3.345,10.854,3.345,16.623V269.41z"/>
	</g>
</g>
<g>
</g>
<g>
</g>
<g>
</g>
<g>
</g>
<g>
</g>
<g>
</g>
<g>
</g>
<g>
</g>
<g>
</g>
<g>
</g>
<g>
</g>
<g>
</g>
<g>
</g>
<g>
</g>
<g>
</g>
</svg>
