<?xml version="1.0" encoding="iso-8859-1"?>
<!-- Generator: Adobe Illustrator 19.0.0, SVG Export Plug-In . SVG Version: 6.00 Build 0)  -->
<svg version="1.1" id="Layer_1" xmlns="http://www.w3.org/2000/svg" xmlns:xlink="http://www.w3.org/1999/xlink" x="0px" y="0px"
	 viewBox="0 0 512.081 512.081" style="enable-background:new 0 0 512.081 512.081;" xml:space="preserve">
<g>
	<g>
		<path d="M497.418,378.291c-27.211-68.031-34.928-140.39-36.613-189.114c-1.871-54.7-25.097-105.109-63.73-138.296
			C335.877-1.725,263.266-0.198,256.042,0.072c-7.27-0.307-79.853-1.787-141.033,50.809c-38.633,33.187-61.859,83.596-63.73,138.296
			c-1.685,48.724-9.402,121.083-36.613,189.114c-0.931,2.346-0.884,4.952,0.149,7.252c1.266,2.821,31.474,67.323,148.387,70.526
			v46.704c0,5.139,4.17,9.309,9.309,9.309c5.148,0,9.309-4.17,9.309-9.309v-46.545h0.894c0.754,0.503,1.508,1.015,2.262,1.517
			l8.667,5.818c3.528,2.392,6.963,4.943,10.389,7.475c14.913,11.022,30.329,22.426,52.01,22.426
			c21.681,0,37.097-11.404,52.01-22.426c3.426-2.532,6.861-5.083,10.38-7.466l8.667-5.818c0.763-0.512,1.527-1.024,2.281-1.527
			h1.387v46.545c0,5.139,4.17,9.309,9.309,9.309c5.148,0,9.309-4.17,9.309-9.309v-46.713
			c116.513-3.37,146.628-67.705,147.884-70.516C498.293,383.244,498.349,380.637,497.418,378.291z M359.243,410.333
			c-7.987,7.568-16.738,14.206-25.833,20.592c-5.492,3.854-11.068,7.615-16.663,11.348l-8.76,5.883
			c-3.724,2.532-7.373,5.222-11.013,7.913c-13.051,9.654-25.386,18.776-40.932,18.776c-15.546,0-27.881-9.123-40.941-18.776
			c-3.631-2.69-7.28-5.381-11.013-7.913l-8.76-5.883c-5.52-3.705-11.041-7.41-16.486-11.227c-9.16-6.423-17.976-13.098-26-20.713
			c-41.1-39.024-45.27-130.122-45.698-173.94c17.715,4.375,46.303,7.252,72.257,5.641c38.484-2.392,89.712-14.662,123.234-58.154
			c13.629,16.728,45.13,45.494,102.335,48.64C404.737,274.616,401.599,370.127,359.243,410.333z"/>
	</g>
</g>
<g>
</g>
<g>
</g>
<g>
</g>
<g>
</g>
<g>
</g>
<g>
</g>
<g>
</g>
<g>
</g>
<g>
</g>
<g>
</g>
<g>
</g>
<g>
</g>
<g>
</g>
<g>
</g>
<g>
</g>
</svg>
